<?xml version="1.0" encoding="UTF-8" standalone="no"?>
<!DOCTYPE svg PUBLIC "-//W3C//DTD SVG 1.1//EN" "http://www.w3.org/Graphics/SVG/1.1/DTD/svg11.dtd">
<svg width="100%" height="100%" viewBox="0 0 160 160" version="1.1" xmlns="http://www.w3.org/2000/svg" xmlns:xlink="http://www.w3.org/1999/xlink" xml:space="preserve" style="fill-rule:evenodd;clip-rule:evenodd;stroke-linejoin:round;stroke-miterlimit:1.41421;">
    <g transform="matrix(4.10851,0,0,4.10851,-116.511,-150.442)">
        <circle cx="47.83" cy="56.089" r="19.472" style="fill:rgb(192,255,0);stroke:black;stroke-width:0.24px;"/>
    </g>
    <g transform="matrix(1.91906e-16,-1.72854,2.70502,3.00317e-16,-139.032,543.438)">
        <path d="M253.964,65.393C246.891,65.393 241.149,72.532 241.149,81.324C241.149,90.117 246.891,97.255 253.964,97.255C251.842,93.538 250.12,87.679 250.12,81.324C250.12,74.969 251.842,69.11 253.964,65.393Z" style="stroke:black;stroke-width:0.44px;stroke-linecap:round;stroke-miterlimit:1.5;"/>
    </g>
    <g transform="matrix(2.47532,0,0,2.49607,-557.421,-64.5339)">
        <ellipse cx="245.866" cy="47.475" rx="5.05" ry="5.008" style="stroke:black;stroke-width:0.4px;stroke-linecap:round;stroke-miterlimit:1.5;"/>
    </g>
    <g transform="matrix(2.47532,0,0,2.49607,-498.343,-64.5339)">
        <ellipse cx="245.866" cy="47.475" rx="5.05" ry="5.008" style="stroke:black;stroke-width:0.4px;stroke-linecap:round;stroke-miterlimit:1.5;"/>
    </g>
</svg>
