<?xml version="1.0" encoding="UTF-8" standalone="no"?>
<!DOCTYPE svg PUBLIC "-//W3C//DTD SVG 1.1//EN" "http://www.w3.org/Graphics/SVG/1.1/DTD/svg11.dtd">
<svg width="100%" height="100%" viewBox="0 0 937 150" version="1.1" xmlns="http://www.w3.org/2000/svg" xmlns:xlink="http://www.w3.org/1999/xlink" xml:space="preserve" style="fill-rule:evenodd;clip-rule:evenodd;stroke-linecap:round;stroke-linejoin:round;stroke-miterlimit:1.5;">
    <g transform="matrix(1.06258,0,0,1.06258,-5.60668,-8.68532)">
        <path d="M69.084,29.022L69.084,28.826L95.068,113.813L123.592,22.574C125.676,16.062 129.518,12.806 135.119,12.806L136.096,12.806C137.398,12.806 139.222,13.001 141.566,13.392C144.171,14.043 145.734,14.369 146.255,14.369C147.297,14.499 148.469,14.597 149.772,14.662C151.074,14.727 152.507,14.76 154.07,14.76C157.587,14.76 160.322,14.564 162.275,14.174L167.941,13.197C168.462,12.936 169.7,12.806 171.653,12.806C179.598,12.806 183.571,15.867 183.571,21.988C183.571,27.719 180.51,30.585 174.388,30.585C173.607,30.585 172.793,30.552 171.946,30.487C171.1,30.422 170.286,30.324 169.504,30.194C168.723,30.064 167.778,29.966 166.671,29.901C165.564,29.836 165.076,29.738 165.206,29.608C161.168,29.738 159.149,33.58 159.149,41.135L159.149,54.225L158.954,70.831L158.954,86.656L159.149,116.352C159.149,123.907 161.233,127.684 165.401,127.684C165.922,127.684 166.411,127.651 166.867,127.586C167.322,127.521 167.811,127.489 168.332,127.489C169.765,127.228 170.807,127.098 171.458,127.098C172.109,127.098 172.565,127.098 172.825,127.098C173.216,127.098 173.542,127.065 173.802,127C174.063,126.935 174.258,126.902 174.388,126.902C180.51,126.902 183.571,129.768 183.571,135.499C183.571,138.494 182.529,140.969 180.445,142.923C178.361,144.877 175.626,145.528 172.239,144.877C169.634,144.616 167.681,144.518 166.378,144.584C165.076,144.649 163.513,144.486 161.689,144.095C158.563,143.835 155.958,143.574 153.874,143.314C151.791,143.053 149.641,142.923 147.427,142.923C144.692,142.923 141.989,143.021 139.319,143.216C136.649,143.411 133.947,143.769 131.211,144.29C128.867,144.681 126.653,144.877 124.569,144.877C117.536,144.877 114.019,141.946 114.019,136.085C114.019,130.094 117.601,127.098 124.764,127.098C125.546,127.098 126.164,127.065 126.62,127C127.076,126.935 127.565,127.033 128.086,127.293C128.737,127.423 129.323,127.489 129.844,127.489L132.579,127.489C135.184,127.489 136.877,123.646 137.659,115.962C137.789,114.659 137.887,112.38 137.952,109.124C138.017,105.868 138.049,101.83 138.049,97.011C138.049,94.927 138.049,92.387 138.049,89.391C138.049,86.396 138.115,82.944 138.245,79.037C138.245,76.692 138.31,73.859 138.44,70.538C138.57,67.217 138.636,64.384 138.636,62.039L138.636,42.698L108.353,136.866C107.311,139.602 105.65,141.783 103.371,143.411C101.092,145.039 98.259,145.853 94.872,145.853C90.705,145.853 87.611,145.202 85.592,143.9C83.574,142.597 82.043,140.253 81.001,136.866C76.052,121.627 71.07,106.128 66.055,90.368C61.041,74.608 56.124,58.979 51.305,43.479L52.282,116.157C52.412,123.581 53.845,127.293 56.58,127.293C57.622,127.293 59.25,127.033 61.464,126.512L64.395,126.512C71.428,126.512 74.945,129.573 74.945,135.694C74.945,141.816 71.363,144.877 64.199,144.877C63.678,144.877 63.157,144.877 62.636,144.877C62.115,144.877 61.529,144.811 60.878,144.681L61.073,144.681C60.813,144.551 60.422,144.486 59.901,144.486L50.914,143.118C48.309,142.728 45.313,142.532 41.927,142.532C35.284,142.532 30.986,142.728 29.033,143.118L21.022,144.681C20.632,144.681 20.306,144.746 20.045,144.877L18.483,144.877C10.537,144.877 6.565,141.816 6.565,135.694C6.565,133.089 7.477,130.973 9.3,129.345C11.124,127.717 13.207,126.902 15.552,126.902C16.464,126.902 17.506,126.968 18.678,127.098C19.85,127.228 20.892,127.358 21.804,127.489C22.325,127.619 22.976,127.684 23.758,127.684C24.148,127.684 24.474,127.749 24.734,127.879C28.902,127.879 30.986,124.102 30.986,116.548L30.986,41.135C30.986,33.841 28.967,29.999 24.93,29.608C24.93,29.738 24.344,29.836 23.171,29.901C21.999,29.966 21.087,30.064 20.436,30.194C19.655,30.324 18.808,30.422 17.896,30.487C16.985,30.552 16.203,30.585 15.552,30.585C9.561,30.585 6.565,27.719 6.565,21.988C6.565,15.867 10.472,12.806 18.287,12.806C18.548,12.806 18.971,12.806 19.557,12.806C20.143,12.806 20.697,12.871 21.218,13.001L27.665,13.783C30.791,14.174 33.721,14.369 36.457,14.369C37.629,14.369 38.964,14.304 40.462,14.174C41.96,14.043 43.685,13.848 45.639,13.587C47.723,13.327 49.546,13.132 51.109,13.001C52.672,12.871 53.975,12.806 55.017,12.806C61.529,12.806 65.762,16.518 67.716,23.942L69.084,29.022Z" style="fill:rgb(72,183,226);fill-rule:nonzero;"/>
        <path d="M251.755,148.003C234.172,148.003 220.17,141.686 209.751,129.052C199.721,116.418 194.707,99.616 194.707,78.646C194.707,57.546 199.787,40.744 209.946,28.24C220.235,15.736 234.497,9.485 252.732,9.485C270.315,9.485 284.122,15.541 294.151,27.654C304.44,39.767 309.585,55.918 309.585,76.106C309.585,97.988 304.375,115.376 293.955,128.27C284.057,141.425 269.99,148.003 251.755,148.003ZM252.146,28.24C241.075,28.24 232.544,32.603 226.552,41.33C220.561,50.057 217.565,62.43 217.565,78.451C217.565,94.731 220.561,107.268 226.552,116.059C232.544,124.851 241.01,129.247 251.951,129.247C262.37,129.247 270.706,124.819 276.958,115.962C283.47,106.975 286.727,94.276 286.727,77.864C286.727,61.844 283.763,49.568 277.837,41.037C271.911,32.506 263.347,28.24 252.146,28.24Z" style="fill:rgb(72,183,226);fill-rule:nonzero;"/>
        <path d="M379.723,148.003C362.14,148.003 348.138,141.686 337.718,129.052C327.689,116.418 322.675,99.616 322.675,78.646C322.675,57.546 327.754,40.744 337.914,28.24C348.203,15.736 362.465,9.485 380.7,9.485C398.283,9.485 412.09,15.541 422.119,27.654C432.408,39.767 437.553,55.918 437.553,76.106C437.553,97.988 432.343,115.376 421.923,128.27C412.024,141.425 397.958,148.003 379.723,148.003ZM380.114,28.24C369.043,28.24 360.512,32.603 354.52,41.33C348.529,50.057 345.533,62.43 345.533,78.451C345.533,94.731 348.529,107.268 354.52,116.059C360.512,124.851 368.978,129.247 379.918,129.247C390.338,129.247 398.674,124.819 404.926,115.962C411.438,106.975 414.694,94.276 414.694,77.864C414.694,61.844 411.731,49.568 405.805,41.037C399.879,32.506 391.315,28.24 380.114,28.24Z" style="fill:rgb(72,183,226);fill-rule:nonzero;"/>
        <path d="M471.547,41.135C471.547,33.711 469.463,29.868 465.296,29.608C465.035,29.738 464.547,29.803 463.83,29.803C463.114,29.803 462.365,29.868 461.583,29.999L461.779,29.999C459.434,30.389 457.546,30.585 456.113,30.585C450.122,30.585 447.126,27.719 447.126,21.988C447.126,15.867 451.033,12.806 458.848,12.806C459.109,12.806 459.532,12.806 460.118,12.806C460.704,12.806 461.258,12.871 461.779,13.001L471.547,14.369C473.371,14.629 475.227,14.825 477.115,14.955C479.004,15.085 480.99,15.15 483.074,15.15C486.33,15.15 489.717,14.955 493.234,14.564L505.542,13.197C506.714,13.066 508.114,12.969 509.742,12.904C511.37,12.838 513.161,12.806 515.115,12.806C527.098,12.806 537.062,14.499 545.007,17.886C555.687,22.444 564.088,30.129 570.21,40.939C576.331,51.75 579.392,64.449 579.392,79.037C579.392,91.28 576.917,102.742 571.968,113.422C569.624,118.371 566.758,122.735 563.372,126.512C559.985,130.289 556.208,133.48 552.04,136.085C547.091,138.82 541.49,140.969 535.238,142.532C528.986,144.095 522.344,144.877 515.31,144.877C513.878,144.877 512.445,144.844 511.012,144.779C509.58,144.714 508.147,144.616 506.714,144.486L493.82,143.314C489.522,142.923 485.028,142.728 480.339,142.728C476.301,142.728 473.045,142.923 470.571,143.314L461.583,144.681C461.062,144.681 460.607,144.746 460.216,144.877L458.458,144.877C450.903,144.877 447.126,141.816 447.126,135.694C447.126,133.089 448.005,130.973 449.764,129.345C451.522,127.717 453.638,126.902 456.113,126.902C457.676,126.902 459.565,127.098 461.779,127.489C462.3,127.489 462.821,127.521 463.342,127.586C463.863,127.651 464.449,127.684 465.1,127.684C469.398,127.684 471.547,123.907 471.547,116.352L471.547,41.135ZM493.624,118.502C493.624,122.93 495.643,125.665 499.681,126.707C500.983,127.098 505.998,127.293 514.724,127.293C521.497,127.293 527.423,126.284 532.503,124.265C537.583,122.246 541.686,119.478 544.811,115.962C548.458,111.403 551.291,105.998 553.31,99.746C555.329,93.494 556.338,86.591 556.338,79.037C556.338,67.054 554.092,56.96 549.598,48.754C545.105,40.549 538.82,35.274 530.745,32.929C525.665,31.366 519.348,30.585 511.794,30.585C502.807,30.585 497.271,31.106 495.187,32.148L495.187,31.952C494.145,32.603 493.624,35.013 493.624,39.181L493.624,118.502Z" style="fill:rgb(72,183,226);fill-rule:nonzero;"/>
        <path d="M613.191,41.135C613.191,33.58 611.042,29.803 606.744,29.803C605.572,29.803 604.465,29.933 603.423,30.194C601.208,30.585 599.32,30.78 597.757,30.78C595.282,30.78 593.166,29.966 591.407,28.338C589.649,26.71 588.77,24.593 588.77,21.988C588.77,15.867 592.547,12.806 600.101,12.806C600.492,12.806 601.013,12.806 601.664,12.806C602.316,12.806 602.902,12.871 603.423,13.001L613.191,14.369C615.015,14.629 616.871,14.825 618.759,14.955C620.648,15.085 622.504,15.15 624.327,15.15C626.021,15.15 627.942,15.053 630.091,14.857C632.24,14.662 634.422,14.434 636.636,14.174L645.037,13.001C645.558,12.871 646.111,12.806 646.697,12.806C647.283,12.806 647.772,12.806 648.163,12.806C655.847,12.806 659.689,15.867 659.689,21.988C659.689,24.593 658.778,26.71 656.954,28.338C655.131,29.966 653.047,30.78 650.702,30.78C648.879,30.78 646.99,30.585 645.037,30.194C643.734,29.933 642.562,29.803 641.52,29.803C637.352,29.803 635.268,33.58 635.268,41.135L635.268,116.352C635.268,123.907 637.352,127.684 641.52,127.684C641.78,127.684 642.074,127.684 642.399,127.684C642.725,127.684 643.213,127.619 643.864,127.489L645.232,127.489L645.037,127.489C647.381,127.098 649.27,126.902 650.702,126.902C656.694,126.902 659.689,129.768 659.689,135.499C659.689,141.751 655.847,144.877 648.163,144.877L646.404,144.877C646.144,144.746 645.753,144.681 645.232,144.681L635.268,143.118C633.575,142.858 631.914,142.662 630.286,142.532C628.658,142.402 627.063,142.337 625.5,142.337C622.895,142.337 620.485,142.434 618.271,142.63C616.057,142.825 613.908,143.053 611.824,143.314L603.227,144.681C602.706,144.681 602.25,144.746 601.86,144.877L599.906,144.877C592.482,144.877 588.77,141.751 588.77,135.499C588.77,129.768 591.766,126.902 597.757,126.902C597.887,126.902 598.083,126.935 598.343,127C598.604,127.065 598.929,127.098 599.32,127.098C599.711,127.098 600.232,127.13 600.883,127.196C601.534,127.261 602.25,127.293 603.032,127.293C603.683,127.423 604.302,127.521 604.888,127.586C605.474,127.651 606.093,127.684 606.744,127.684C611.042,127.684 613.191,123.907 613.191,116.352L613.191,41.135Z" style="fill:rgb(72,183,226);fill-rule:nonzero;"/>
        <path d="M722.208,22.965L722.013,22.77C726.181,31.496 730.056,39.572 733.637,46.996C737.219,54.42 740.768,61.681 744.285,68.78C747.802,75.878 751.351,83.139 754.933,90.564C758.515,97.988 762.389,106.063 766.557,114.789L766.557,53.052C766.557,43.414 766.492,38.269 766.362,37.618C765.45,32.799 763.496,30.194 760.501,29.803C760.371,29.933 759.752,30.031 758.645,30.096C757.538,30.161 756.659,30.259 756.007,30.389C755.096,30.52 754.216,30.617 753.37,30.682C752.523,30.747 751.774,30.78 751.123,30.78C748.648,30.78 746.499,29.901 744.676,28.143C742.852,26.384 741.941,24.398 741.941,22.184C741.941,15.932 745.848,12.806 753.663,12.806C754.314,12.806 754.802,12.773 755.128,12.708C755.454,12.643 755.942,12.741 756.593,13.001L764.799,14.174C766.622,14.434 768.413,14.629 770.172,14.76C771.93,14.89 773.526,14.955 774.958,14.955C777.824,14.955 781.992,14.564 787.462,13.783L794.105,12.806C794.626,12.806 795.081,12.741 795.472,12.611L797.035,12.611C804.589,12.611 808.367,15.671 808.367,21.793C808.367,27.784 804.785,30.78 797.621,30.78C796.97,30.78 796.482,30.813 796.156,30.878C795.83,30.943 795.472,30.845 795.081,30.585L793.714,30.585C791.239,30.585 789.644,31.236 788.927,32.538C788.211,33.841 787.722,36.706 787.462,41.135C787.462,42.958 787.397,44.749 787.267,46.507C787.136,48.266 787.071,50.057 787.071,51.88L786.68,71.026L786.68,121.041C786.68,130.68 785.508,137.42 783.164,141.262C780.819,145.105 776.651,147.026 770.66,147.026C763.236,147.026 757.114,142.141 752.295,132.373L709.118,42.893L709.118,116.352C709.118,123.907 711.267,127.684 715.566,127.684C715.826,127.684 716.347,127.651 717.128,127.586C717.91,127.521 718.757,127.489 719.668,127.489C720.45,127.358 721.524,127.228 722.892,127.098C724.26,126.968 724.813,126.902 724.553,126.902C730.674,126.902 733.735,129.833 733.735,135.694C733.735,141.816 729.828,144.877 722.013,144.877L720.645,144.877C720.385,144.746 720.092,144.681 719.766,144.681C719.44,144.681 719.212,144.681 719.082,144.681L711.463,143.509L711.658,143.509C709.444,143.248 707.36,143.021 705.406,142.825C703.453,142.63 701.629,142.532 699.936,142.532C698.633,142.532 696.908,142.63 694.759,142.825C692.609,143.021 690.298,143.248 687.823,143.509L678.64,144.681C678.119,144.681 677.664,144.746 677.273,144.877L675.319,144.877C667.895,144.877 664.183,141.816 664.183,135.694C664.183,130.094 667.244,127.293 673.365,127.293C673.496,127.293 673.691,127.326 673.952,127.391C674.212,127.456 674.538,127.489 674.928,127.489L678.64,127.489C679.813,127.879 681.05,128.075 682.352,128.075C686.52,128.075 688.604,124.298 688.604,116.743L688.604,103.653L688.8,87.047L688.8,71.026L688.604,41.33C688.604,33.645 686.455,29.803 682.157,29.803C681.506,29.803 680.855,29.868 680.203,29.999C679.943,29.999 679.715,30.031 679.52,30.096C679.324,30.161 679.096,30.194 678.836,30.194C677.794,30.454 676.752,30.617 675.71,30.682C674.668,30.747 673.821,30.78 673.17,30.78C667.048,30.78 663.988,27.849 663.988,21.988C663.988,15.867 667.7,12.806 675.124,12.806C675.515,12.806 676.036,12.806 676.687,12.806C677.338,12.806 677.989,12.871 678.64,13.001C681.636,13.262 684.339,13.49 686.748,13.685C689.158,13.88 691.144,13.978 692.707,13.978C694.27,13.978 696.94,13.783 700.717,13.392C704.364,13.001 707.295,12.806 709.509,12.806C712.244,12.806 714.426,13.262 716.054,14.174C717.682,15.085 719.017,16.453 720.059,18.276L722.208,22.965Z" style="fill:rgb(72,183,226);fill-rule:nonzero;"/>
        <path d="M837.086,41.135C837.086,33.58 834.937,29.803 830.639,29.803C829.467,29.803 828.36,29.933 827.318,30.194C825.103,30.585 823.215,30.78 821.652,30.78C819.177,30.78 817.061,29.966 815.302,28.338C813.544,26.71 812.665,24.593 812.665,21.988C812.665,15.867 816.442,12.806 823.996,12.806C824.387,12.806 824.908,12.806 825.559,12.806C826.211,12.806 826.797,12.871 827.318,13.001L837.086,14.369C838.91,14.629 840.766,14.825 842.654,14.955C844.543,15.085 846.399,15.15 848.222,15.15C849.916,15.15 851.837,15.053 853.986,14.857C856.135,14.662 858.316,14.434 860.531,14.174L868.932,13.001C869.453,12.871 870.006,12.806 870.592,12.806C871.178,12.806 871.667,12.806 872.058,12.806C879.742,12.806 883.584,15.867 883.584,21.988C883.584,24.593 882.673,26.71 880.849,28.338C879.026,29.966 876.942,30.78 874.597,30.78C872.774,30.78 870.885,30.585 868.932,30.194C867.629,29.933 866.457,29.803 865.415,29.803C861.247,29.803 859.163,33.58 859.163,41.135L859.163,116.352C859.163,123.907 861.247,127.684 865.415,127.684C865.675,127.684 865.968,127.684 866.294,127.684C866.62,127.684 867.108,127.619 867.759,127.489L869.127,127.489L868.932,127.489C871.276,127.098 873.165,126.902 874.597,126.902C880.589,126.902 883.584,129.768 883.584,135.499C883.584,141.751 879.742,144.877 872.058,144.877L870.299,144.877C870.039,144.746 869.648,144.681 869.127,144.681L859.163,143.118C857.47,142.858 855.809,142.662 854.181,142.532C852.553,142.402 850.957,142.337 849.395,142.337C846.79,142.337 844.38,142.434 842.166,142.63C839.952,142.825 837.803,143.053 835.719,143.314L827.122,144.681C826.601,144.681 826.145,144.746 825.755,144.877L823.801,144.877C816.377,144.877 812.665,141.751 812.665,135.499C812.665,129.768 815.661,126.902 821.652,126.902C821.782,126.902 821.977,126.935 822.238,127C822.498,127.065 822.824,127.098 823.215,127.098C823.606,127.098 824.127,127.13 824.778,127.196C825.429,127.261 826.145,127.293 826.927,127.293C827.578,127.423 828.197,127.521 828.783,127.586C829.369,127.651 829.988,127.684 830.639,127.684C834.937,127.684 837.086,123.907 837.086,116.352L837.086,41.135Z" style="fill:rgb(72,183,226);fill-rule:nonzero;"/>
    </g>
    <g transform="matrix(1.62198e-16,-1.46095,1.5132,1.67999e-16,139.08,460.262)">
        <path d="M253.964,65.393C246.891,65.393 241.149,72.532 241.149,81.324C241.149,90.117 246.891,97.255 253.964,97.255C251.842,93.538 250.12,87.679 250.12,81.324C250.12,74.969 251.842,69.11 253.964,65.393Z" style="fill:rgb(72,183,226);stroke:rgb(72,183,226);stroke-width:0.67px;"/>
    </g>
    <g transform="matrix(1.48519,0,0,1.49764,-116.842,-19.1335)">
        <ellipse cx="245.866" cy="47.475" rx="5.05" ry="5.008" style="fill:rgb(72,183,226);stroke:rgb(72,183,226);stroke-width:0.67px;"/>
    </g>
    <g transform="matrix(1.48519,0,0,1.49764,-88.7639,-19.1335)">
        <ellipse cx="245.866" cy="47.475" rx="5.05" ry="5.008" style="fill:rgb(72,183,226);stroke:rgb(72,183,226);stroke-width:0.67px;"/>
    </g>
    <g transform="matrix(1.67168e-17,1.46095,-1.5132,1.73146e-17,521.2,-262.799)">
        <path d="M253.964,65.393C246.891,65.393 241.149,72.532 241.149,81.324C241.149,90.117 246.891,97.255 253.964,97.255C251.842,93.538 250.12,87.679 250.12,81.324C250.12,74.969 251.842,69.11 253.964,65.393Z" style="fill:rgb(72,183,226);stroke:rgb(72,183,226);stroke-width:0.67px;"/>
    </g>
    <g transform="matrix(1.48519,0,0,1.49764,19.1582,-19.1335)">
        <ellipse cx="245.866" cy="47.475" rx="5.05" ry="5.008" style="fill:rgb(72,183,226);stroke:rgb(72,183,226);stroke-width:0.67px;"/>
    </g>
    <g transform="matrix(1.48519,0,0,1.49764,47.2361,-19.1335)">
        <ellipse cx="245.866" cy="47.475" rx="5.05" ry="5.008" style="fill:rgb(72,183,226);stroke:rgb(72,183,226);stroke-width:0.67px;"/>
    </g>
</svg>
